<svg id="Layer_1" data-name="Layer 1" xmlns="http://www.w3.org/2000/svg" width="178.5" height="107.93" viewBox="0 0 178.5 107.93"><title>Fox Sports logo - Brandlogos.net</title><path d="M296.49,404.77V330h45.37l1.4,20.44H317.85v9.74h20.7v20.4H317.7v24.16H296.49m174.74-.22-22.7-38.78L469.15,330H446.43L437,346.12,427.75,330h-23.5l21,36L403,404.6h22.83l10.9-18.89,11,18.85h23.49" transform="translate(-294.75 -330.03)"/><path d="M385,382.42V352.56a6.61,6.61,0,0,0-6.35-6.45,6.38,6.38,0,0,0-6.07,6.45v29.77a6.13,6.13,0,0,0,6.09,6.17,6.28,6.28,0,0,0,6.35-6.08Zm-42.35-14.93a35.9,35.9,0,1,1,35.89,36.35A36.12,36.12,0,0,1,342.68,367.49Zm-47.93,69.72v-3.86l2-1.91h16.1l.61-.6v-4.09l-.44-.44H298.06L294.75,423V413.6l3.82-3.79h21.66V414l-1.56,1.58H303l-.61.6v4l.44.43H317.7l3.31,3.3v9.54l-3.82,3.78H294.75m49-14.13,1.12-1.1v-5.25l-1.12-1.1H333.37v7.45Zm-18-13.26h22.48l4.26,4.22v10.15l-4.26,4.23H333.37v8.8h-7.61Zm48.7,21,1.57-1.53v-12l-1.57-1.55H365.6l-1.55,1.55v12l1.55,1.53Zm-18,2.2V414l4.22-4.22h18.66l4.26,4.22v19l-4.26,4.21H360.7Zm49.95-11.43,1.08-1.07v-4l-1.08-1.07H396.18v6.14Zm-17.84-11.75H411.3l3.82,3.79v8.75L411.47,426l4.8,11.25h-8.46l-3.58-9.94h-8.05v9.94h-7.6Zm37.89,6.35h-8.79v-6.35h25.19v6.35h-8.79v21h-7.61v-21M447,438V434.1l2-1.91h16.09l.61-.6v-4.1l-.44-.44H450.3L447,423.77v-9.41l3.82-3.79h21.66v4.17l-1.56,1.58H455.2l-.61.6v4l.44.43h14.92l3.31,3.3v9.54L469.43,438H447" transform="translate(-294.75 -330.03)"/></svg>